<svg width="24" height="24" viewBox="0 0 24 24" fill="none" xmlns="http://www.w3.org/2000/svg">
<g id="codesandbox">
<path id="Vector" d="M20.6007 16V8.00002C20.6004 7.6493 20.5109 7.30483 20.3412 7.00119C20.1714 6.69754 19.9275 6.44539 19.6338 6.27002L12.8654 2.27002C12.5714 2.09449 12.238 2.00208 11.8985 2.00208C11.5591 2.00208 11.2256 2.09449 10.9316 2.27002L4.1632 6.27002C3.86951 6.44539 3.62558 6.69754 3.45587 7.00119C3.28616 7.30483 3.19664 7.6493 3.19629 8.00002V16C3.19664 16.3508 3.28616 16.6952 3.45587 16.9989C3.62558 17.3025 3.86951 17.5547 4.1632 17.73L10.9316 21.73C11.2256 21.9056 11.5591 21.998 11.8985 21.998C12.238 21.998 12.5714 21.9056 12.8654 21.73L19.6338 17.73C19.9275 17.5547 20.1714 17.3025 20.3412 16.9989C20.5109 16.6952 20.6004 16.3508 20.6007 16Z" stroke="#108A00" stroke-width="2" stroke-linecap="round" stroke-linejoin="round"/>
<path id="Vector_2" d="M7.54739 4.20996L11.8985 6.80996L16.2496 4.20996" stroke="#108A00" stroke-width="2" stroke-linecap="round" stroke-linejoin="round"/>
<path id="Vector_3" d="M7.5474 19.79V14.6L3.19629 12" stroke="#108A00" stroke-width="2" stroke-linecap="round" stroke-linejoin="round"/>
<path id="Vector_4" d="M20.6007 12L16.2496 14.6V19.79" stroke="#108A00" stroke-width="2" stroke-linecap="round" stroke-linejoin="round"/>
<path id="Vector_5" d="M3.45734 6.95996L11.8985 12.01L20.3397 6.95996" stroke="#108A00" stroke-width="2" stroke-linecap="round" stroke-linejoin="round"/>
<path id="Vector_6" d="M11.8985 22.08V12" stroke="#108A00" stroke-width="2" stroke-linecap="round" stroke-linejoin="round"/>
</g>
</svg>
