<svg width="45" height="45" viewBox="0 0 45 45" fill="none" xmlns="http://www.w3.org/2000/svg">
<g id="mingcute:user-4-line" clip-path="url(#clip0_21_13)">
<g id="Group">
<path id="Vector" fill-rule="evenodd" clip-rule="evenodd" d="M22.5 3.75C32.8556 3.75 41.25 12.1444 41.25 22.5C41.2566 26.8273 39.7601 31.0226 37.0163 34.3687L37.0538 34.41L36.8063 34.62C35.0479 36.6998 32.8567 38.3706 30.3857 39.5158C27.9147 40.6609 25.2235 41.2528 22.5 41.25C16.9688 41.25 12 38.8556 8.56877 35.0494L8.19377 34.6181L7.94627 34.4119L7.98377 34.3669C5.24019 31.0213 3.74369 26.8267 3.75002 22.5C3.75002 12.1444 12.1444 3.75 22.5 3.75ZM22.5 31.875C19.0125 31.875 15.8606 32.985 13.5131 34.5094C16.1049 36.4549 19.2593 37.5046 22.5 37.5C25.7408 37.5046 28.8951 36.4549 31.4869 34.5094C28.8043 32.7912 25.6857 31.877 22.5 31.875ZM22.5 7.5C19.6773 7.49992 16.9117 8.29634 14.5214 9.79772C12.131 11.2991 10.2128 13.4445 8.9872 15.9873C7.76161 18.5301 7.2784 21.3672 7.59312 24.1724C7.90783 26.9775 9.00769 29.637 10.7663 31.845C13.8056 29.6644 17.9531 28.125 22.5 28.125C27.0469 28.125 31.1944 29.6644 34.2338 31.845C35.9924 29.637 37.0922 26.9775 37.4069 24.1724C37.7216 21.3672 37.2384 18.5301 36.0128 15.9873C34.7873 13.4445 32.869 11.2991 30.4787 9.79772C28.0883 8.29634 25.3228 7.49992 22.5 7.5ZM22.5 11.25C24.4891 11.25 26.3968 12.0402 27.8033 13.4467C29.2098 14.8532 30 16.7609 30 18.75C30 20.7391 29.2098 22.6468 27.8033 24.0533C26.3968 25.4598 24.4891 26.25 22.5 26.25C20.5109 26.25 18.6032 25.4598 17.1967 24.0533C15.7902 22.6468 15 20.7391 15 18.75C15 16.7609 15.7902 14.8532 17.1967 13.4467C18.6032 12.0402 20.5109 11.25 22.5 11.25ZM22.5 15C21.5055 15 20.5516 15.3951 19.8484 16.0984C19.1451 16.8016 18.75 17.7554 18.75 18.75C18.75 19.7446 19.1451 20.6984 19.8484 21.4016C20.5516 22.1049 21.5055 22.5 22.5 22.5C23.4946 22.5 24.4484 22.1049 25.1517 21.4016C25.8549 20.6984 26.25 19.7446 26.25 18.75C26.25 17.7554 25.8549 16.8016 25.1517 16.0984C24.4484 15.3951 23.4946 15 22.5 15Z" fill="#108A00"/>
</g>
</g>
<defs>
<clipPath id="clip0_21_13">
<rect width="45" height="45" fill="white"/>
</clipPath>
</defs>
</svg>
