<svg width="22" height="21" viewBox="0 0 22 21" fill="none" xmlns="http://www.w3.org/2000/svg">
<g id="minimize">
<path id="Vector" d="M2.69669 14H5.34216C5.80991 14 6.25851 14.1844 6.58925 14.5126C6.92 14.8408 7.10582 15.2859 7.10582 15.75V18.375M7.10582 2.625V5.25C7.10582 5.71413 6.92 6.15925 6.58925 6.48744C6.25851 6.81563 5.80991 7 5.34216 7H2.69669L7.10582 2.625ZM18.5696 7H15.9241C15.4563 7 15.0077 6.81563 14.677 6.48744C14.3462 6.15925 14.1604 5.71413 14.1604 5.25V2.625L18.5696 7ZM14.1604 18.375V15.75C14.1604 15.2859 14.3462 14.8408 14.677 14.5126C15.0077 14.1844 15.4563 14 15.9241 14H18.5696L14.1604 18.375Z" stroke="#108A00" stroke-width="2" stroke-linecap="round" stroke-linejoin="round"/>
</g>
</svg>
